# xmcd
# Track frame offsets:
# 150
# 11894
# 26314
# 41151
# 55432
# 66360
# 78600
# 94937
# 110063
# 126854
# 139135
# 153900
#
# Disc length: 2255 seconds
# Revision: 0
# Processed by: cddbd v1.5.2PL0 Copyright (c) Steve Scherf et al.
# Submitted via: VisiTrax 2.11.1.266 - For more info visit www.synapsa.com
#
DISCID=aa08cd0c
DTITLE=Vicky Rose - Vicky Rose
DYEAR=1998
DGENRE=Country
TTITLE0=That's What I Like About You
TTITLE1=Every Little Thing
TTITLE2=Take It Back
TTITLE3=What If I Do
TTITLE4=Don't Be Cruel
TTITLE5=Crazy
TTITLE6=Honey ! I'm Home
TTITLE7=Harper Valley P.T.A.
TTITLE8=That Don't Impress Me Much
TTITLE9=Blue
TTITLE10=Proud Mary
TTITLE11=I Feel Lucky
EXTD=
EXTT0=
EXTT1=
EXTT2=
EXTT3=
EXTT4=
EXTT5=
EXTT6=
EXTT7=
EXTT8=
EXTT9=
EXTT10=
EXTT11=
PLAYORDER=
